<svg width="215" height="32" viewBox="0 0 215 32" fill="none" xmlns="http://www.w3.org/2000/svg"><g clip-path="url(#clip0)"><path fill-rule="evenodd" clip-rule="evenodd" d="M74.336 21.91H70.7V6h3.637v15.91zm45.593-2.962c.695 0 1.057-.286 1.076-.853v-1.139h-6.669c-1.476 0-1.486 1.987-.02 1.987 1.871.005 3.742.005 5.613.005zm4.918-5.274c0-2.539-1.18-4.001-3.761-4.001h-10.897v2.963h9.745c.695 0 1.057.286 1.076.853v.738h-7.593c-2.395 0-3.78 1.205-3.78 3.668 0 2.553 1.161 4.02 3.761 4.02h7.688c2.552 0 3.761-1.433 3.761-3.958v-4.283zM103.7 18.948c1.467 0 1.462-1.839-.019-1.839h-6.807c-1.986 0-3.714-1.681-3.714-3.706 0-2.024 1.657-3.758 3.675-3.758h10.993v2.982H97.84c-.457 0-.833.452-.833.91 0 .457.376.833.833.833h.005l6.712-.005h.005c2.104 0 3.823 1.615 3.823 3.72a3.836 3.836 0 01-3.823 3.826H93.717v-2.963h9.983zm-22.089-6.317c-.695 0-1.057.286-1.076.853v1.133h6.67c1.476 0 1.485-1.986.019-1.986h-5.613zm-4.918 5.278c0 2.54 1.181 4.002 3.761 4.002h10.898v-2.963h-9.74c-.696 0-1.058-.286-1.077-.853v-.738h7.598c2.395 0 3.78-1.206 3.78-3.668 0-2.554-1.161-4.021-3.765-4.021h-7.689c-2.547 0-3.76 1.439-3.76 3.959-.006 1.429-.006 2.853-.006 4.282zm-35.829-3.792h2.275l4.152-4.444h4.56l-5.422 5.502 5.827 6.736h-4.57l-3.875-4.726h-2.947v4.726h-3.637V6h3.632c.005 2.706.005 5.412.005 8.117z" fill="#fff"/><path fill-rule="evenodd" clip-rule="evenodd" d="M56.408 12.87h7.446a.63.63 0 01.628.628V18.3c0 .348-.28.629-.628.629h-7.446a.631.631 0 01-.628-.63v-4.8c0-.349.28-.63.628-.63zm-.41-3.197h8.484a3.869 3.869 0 013.856 3.858v4.521a3.866 3.866 0 01-3.856 3.859H56a3.869 3.869 0 01-3.856-3.859v-4.52A3.866 3.866 0 0156 9.672z" fill="#fff"/><path fill-rule="evenodd" clip-rule="evenodd" d="M193.883 9.673h17.367a3.872 3.872 0 013.856 3.858v8.38h-3.637v-8.413a.628.628 0 00-.629-.629h-4.527v9.042h-3.637v-9.042h-5.156v9.042h-3.637V9.673zm-33.459 4.001c0-2.539-1.18-4.001-3.761-4.001h-10.897v2.963h9.741c.695 0 1.056.286 1.076.853v.738h-7.599c-2.394 0-3.78 1.205-3.78 3.668 0 2.553 1.162 4.02 3.766 4.02h7.689c2.551 0 3.761-1.438 3.761-3.958.004-1.434.004-2.858.004-4.283zm-4.917 5.274c.695 0 1.056-.286 1.076-.853v-1.139h-6.67c-1.476 0-1.486 1.987-.019 1.987 1.871.005 3.742.005 5.613.005zm-24.032-6.079h7.445c.348 0 .629.281.629.63v4.8a.628.628 0 01-.629.63h-7.445a.631.631 0 01-.629-.63v-4.8c0-.349.281-.63.629-.63zm47.711-3.196h8.484a3.872 3.872 0 013.856 3.858v4.521a3.872 3.872 0 01-3.856 3.859h-8.484a3.872 3.872 0 01-3.856-3.859v-4.52a3.866 3.866 0 013.856-3.86zm.41 3.196h7.445c.348 0 .629.281.629.63v4.8a.628.628 0 01-.629.63h-7.445a.631.631 0 01-.629-.63v-4.8a.626.626 0 01.629-.63zM139.768 6h3.637v12.052a3.872 3.872 0 01-3.856 3.859h-8.484a3.872 3.872 0 01-3.856-3.859v-4.52a3.866 3.866 0 013.856-3.86h8.484c.071 0 .147.006.219.006V6zm26.874 3.673h6.327v3.196h-5.918a.628.628 0 00-.628.63v8.407h-3.637v-8.375a3.866 3.866 0 013.856-3.858z" fill="#06AA53"/><path d="M16 0c2.804 0 5.44.722 7.735 1.99L19.03 6.695A9.831 9.831 0 0016 6.218a9.755 9.755 0 00-6.917 2.864 9.755 9.755 0 00-2.864 6.92 9.762 9.762 0 002.864 6.92A9.755 9.755 0 0016 25.786c2.7 0 5.147-1.095 6.917-2.864a9.755 9.755 0 002.864-6.92c0-1.055-.168-2.07-.473-3.02l4.706-4.706A15.953 15.953 0 0132 16.002a15.95 15.95 0 01-4.686 11.313A15.95 15.95 0 0116 32a15.95 15.95 0 01-11.314-4.686A15.946 15.946 0 010 16.002 15.95 15.95 0 014.686 4.689 15.937 15.937 0 0116 0z" fill="#06AA53"/><path d="M32 4.313l-11.344 11.09h-.012l-2.508 2.448L15.934 20l-2.198-2.149L8 12.243l4.408-4.313 3.542 3.463.302-.295-.004-.008L27.592 0 32 4.313z" fill="#fff"/></g><defs><clipPath id="clip0"><path fill="#fff" d="M0 0h215v32H0z"/></clipPath></defs></svg>