<svg width="30" height="30" viewBox="0 0 30 30" fill="none" xmlns="http://www.w3.org/2000/svg"><path d="M15 0c2.63 0 5.1.677 7.252 1.865L17.84 6.277A9.217 9.217 0 0015 5.829a9.146 9.146 0 00-6.484 2.685 9.146 9.146 0 00-2.686 6.488 9.152 9.152 0 002.686 6.487A9.146 9.146 0 0015 24.174a9.146 9.146 0 006.485-2.685 9.146 9.146 0 002.685-6.487c0-.99-.158-1.94-.444-2.832l4.412-4.411A14.955 14.955 0 0130 15.002c0 4.14-1.677 7.89-4.393 10.605A14.953 14.953 0 0115 30a14.953 14.953 0 01-10.607-4.393A14.95 14.95 0 010 15.002c0-4.14 1.678-7.89 4.393-10.606A14.94 14.94 0 0115 0z" fill="#06AA53"/><path d="M30 4.044L19.365 14.44h-.011l-2.351 2.294-2.065 2.015-2.06-2.015L7.5 11.478l4.132-4.044 3.322 3.247.282-.277-.003-.007L25.868 0 30 4.044z" fill="#fff"/></svg>