<svg width="215" height="32" viewBox="0 0 215 32" fill="none" xmlns="http://www.w3.org/2000/svg">
<g clip-path="url(#clip0)">
<path fill-rule="evenodd" clip-rule="evenodd" d="M74.3364 21.9107H70.6992C70.6992 16.6088 70.6992 11.302 70.6992 6H74.3364C74.3364 11.302 74.3364 16.6088 74.3364 21.9107Z" fill="white"/>
<path fill-rule="evenodd" clip-rule="evenodd" d="M119.929 18.9478C120.624 18.9478 120.986 18.6619 121.005 18.0951C121.005 17.7426 121.005 17.3138 121.005 16.9565H114.336C112.86 16.9565 112.85 18.943 114.316 18.943C116.187 18.9478 118.058 18.9478 119.929 18.9478ZM124.847 13.6744C124.847 11.1353 123.667 9.67285 121.086 9.67285H110.241H110.189V12.6359H110.203H119.934C120.629 12.6359 120.991 12.9217 121.01 13.4886C121.01 13.7601 121.01 13.9554 121.01 14.2269H113.417C111.022 14.2269 109.637 15.4322 109.637 17.895C109.637 20.4483 110.798 21.9155 113.398 21.9155C115.935 21.9155 118.549 21.9155 121.086 21.9155C123.638 21.9155 124.847 20.4817 124.847 17.9569C124.847 16.523 124.847 15.0987 124.847 13.6744Z" fill="white"/>
<path fill-rule="evenodd" clip-rule="evenodd" d="M103.7 18.948C105.167 18.948 105.162 17.1092 103.681 17.1092H96.8735C94.8883 17.1092 93.1602 15.4277 93.1602 13.4031C93.1602 11.3785 94.8169 9.64453 96.8354 9.64453H107.828V12.6266H97.8399C97.3829 12.6266 97.0068 13.0792 97.0068 13.5365C97.0068 13.9938 97.3829 14.3701 97.8399 14.3701H97.8447L104.557 14.3654H104.562C106.666 14.3654 108.385 15.9802 108.385 18.0858C108.385 20.1866 106.666 21.911 104.562 21.911H93.7267H93.7172V18.948H93.7981H103.7Z" fill="white"/>
<path fill-rule="evenodd" clip-rule="evenodd" d="M81.6112 12.631C80.9161 12.631 80.5543 12.9168 80.5352 13.4837C80.5352 13.8362 80.5352 14.2649 80.5352 14.6174H87.205C88.6808 14.6174 88.6903 12.631 87.224 12.631C85.3531 12.631 83.4821 12.631 81.6112 12.631ZM76.6934 17.9092C76.6934 20.4482 77.874 21.9107 80.4543 21.9107H91.3516V18.9476H81.6112C80.9161 18.9476 80.5543 18.6618 80.5352 18.0949C80.5352 17.8234 80.5352 17.6281 80.5352 17.3566H88.1333C90.528 17.3566 91.9133 16.1514 91.9133 13.6885C91.9133 11.1352 90.7517 9.66797 88.1476 9.66797C85.6102 9.66797 82.9965 9.66797 80.4591 9.66797C77.9121 9.66797 76.6981 11.1066 76.6981 13.6266C76.6934 15.0557 76.6934 16.4801 76.6934 17.9092Z" fill="white"/>
<path fill-rule="evenodd" clip-rule="evenodd" d="M40.8637 14.1173C41.6207 14.1173 42.3824 14.1173 43.1394 14.1173L47.2907 9.67281H51.8514L46.429 15.1749L52.2561 21.9107H47.6858L43.8106 17.1852C42.8299 17.1852 41.8492 17.1852 40.8637 17.1852V21.9107H37.2266C37.2266 16.6088 37.2266 11.302 37.2266 6H40.859C40.8637 8.70578 40.8637 11.4116 40.8637 14.1173Z" fill="white"/>
<path fill-rule="evenodd" clip-rule="evenodd" d="M56.4082 12.8693H63.8539C64.2014 12.8693 64.4823 13.1551 64.4823 13.4981V18.2999C64.4823 18.6477 64.2014 18.9287 63.8539 18.9287H56.4082C56.0606 18.9287 55.7798 18.6429 55.7798 18.2999V13.4981C55.7798 13.1503 56.0606 12.8693 56.4082 12.8693ZM55.9987 9.67285H64.4823C66.6056 9.67285 68.3385 11.4116 68.3385 13.5314V18.0522C68.3385 20.1768 66.6056 21.9108 64.4823 21.9108H55.9987C53.8802 21.9108 52.1426 20.1768 52.1426 18.0522V13.5314C52.1426 11.4068 53.8755 9.67285 55.9987 9.67285Z" fill="white"/>
<path fill-rule="evenodd" clip-rule="evenodd" d="M193.883 9.67281H197.52H211.25C213.368 9.67281 215.106 11.4116 215.106 13.5314V21.9107H211.469V13.4981C211.469 13.1503 211.188 12.8692 210.84 12.8692H206.313V21.9107H202.676V12.8692H197.52V21.9107H193.883V9.67281ZM160.424 13.6743C160.424 11.1353 159.244 9.67281 156.663 9.67281H145.819H145.766V12.6358H145.78H155.507C156.202 12.6358 156.563 12.9216 156.583 13.4885C156.583 13.7553 156.583 13.9554 156.583 14.2269H148.984C146.59 14.2269 145.204 15.4321 145.204 17.8949C145.204 20.4483 146.366 21.9155 148.97 21.9155C151.508 21.9155 154.126 21.9155 156.659 21.9155C159.21 21.9155 160.42 20.4769 160.42 17.9569C160.424 16.523 160.424 15.0987 160.424 13.6743ZM155.507 18.9477C156.202 18.9477 156.563 18.6619 156.583 18.095C156.583 17.7425 156.583 17.3138 156.583 16.9565H149.913C148.437 16.9565 148.427 18.943 149.894 18.943C151.765 18.9477 153.636 18.9477 155.507 18.9477ZM131.475 12.8692H138.92C139.268 12.8692 139.549 13.1503 139.549 13.4981V18.2999C139.549 18.6476 139.268 18.9287 138.92 18.9287H131.475C131.127 18.9287 130.846 18.6428 130.846 18.2999V13.4981C130.846 13.1503 131.127 12.8692 131.475 12.8692ZM179.186 9.67281H187.67C189.788 9.67281 191.526 11.4116 191.526 13.5314V18.0521C191.526 20.172 189.788 21.9107 187.67 21.9107H179.186C177.068 21.9107 175.33 20.172 175.33 18.0521V13.5314C175.33 11.4068 177.063 9.67281 179.186 9.67281ZM179.596 12.8692H187.041C187.389 12.8692 187.67 13.1503 187.67 13.4981V18.2999C187.67 18.6476 187.389 18.9287 187.041 18.9287H179.596C179.248 18.9287 178.967 18.6428 178.967 18.2999V13.4981C178.963 13.1503 179.248 12.8692 179.596 12.8692ZM139.768 6H143.405C143.405 10.0158 143.405 14.0364 143.405 18.0521C143.405 20.172 141.667 21.9107 139.549 21.9107H131.065C128.947 21.9107 127.209 20.172 127.209 18.0521V13.5314C127.209 11.4068 128.942 9.67281 131.065 9.67281H139.549C139.62 9.67281 139.696 9.67757 139.768 9.67757C139.768 8.4533 139.768 7.22427 139.768 6ZM166.642 9.67281H172.969V12.8692H167.051C166.704 12.8692 166.423 13.1503 166.423 13.4981V21.906H162.786V13.5314C162.786 11.4068 164.519 9.67281 166.642 9.67281Z" fill="#06AA53"/>
<path d="M16 0C18.8044 0 21.4403 0.722076 23.7352 1.98972L19.0291 6.69525C18.0742 6.38636 17.0552 6.21788 16 6.21788C13.2999 6.21788 10.8526 7.31302 9.08325 9.08211C7.31394 10.8512 6.21866 13.2982 6.21866 16.002C6.21866 18.7058 7.31394 21.1488 9.08325 22.9219C10.8526 24.691 13.2999 25.7861 16 25.7861C18.7001 25.7861 21.1474 24.691 22.9167 22.9219C24.6861 21.1528 25.7813 18.7058 25.7813 16.002C25.7813 14.947 25.6128 13.9321 25.3079 12.9813L30.014 8.27579C31.2778 10.5664 32 13.202 32 16.002C32 20.4187 30.2106 24.4182 27.3139 27.3145C24.4173 30.2109 20.4173 32 16 32C11.5827 32 7.58275 30.2109 4.68606 27.3145C1.78937 24.4182 0 20.4187 0 16.002C0 11.5853 1.78937 7.58581 4.68606 4.68948C7.58275 1.78914 11.5827 0 16 0Z" fill="#06AA53"/>
<path d="M32 4.31326L20.6562 15.4034H20.6441L18.1362 17.8512L15.9343 20L13.7363 17.8512L8 12.2432L12.4079 7.92995L15.9504 11.3932L16.2523 11.098L16.2482 11.0901L27.5921 0L32 4.31326Z" fill="white"/>
</g>
<defs>
<clipPath id="clip0">
<rect width="215" height="32" fill="white"/>
</clipPath>
</defs>
</svg>
