<svg width="30" height="30" viewBox="0 0 30 30" fill="none" xmlns="http://www.w3.org/2000/svg">
<path d="M15 0C17.6291 0 20.1003 0.676946 22.2518 1.86536L17.8398 6.2768C16.9446 5.98721 15.9892 5.82926 15 5.82926C12.4687 5.82926 10.1743 6.85596 8.51555 8.51448C6.85682 10.173 5.82999 12.4671 5.82999 15.0019C5.82999 17.5367 6.85682 19.827 8.51555 21.4893C10.1743 23.1478 12.4687 24.1745 15 24.1745C17.5313 24.1745 19.8257 23.1478 21.4845 21.4893C23.1432 19.8308 24.17 17.5367 24.17 15.0019C24.17 14.0128 24.012 13.0613 23.7262 12.17L28.1382 7.75856C29.323 9.90598 30 12.3768 30 15.0019C30 19.1425 28.3225 22.8921 25.6068 25.6074C22.8912 28.3227 19.1412 30 15 30C10.8588 30 7.10883 28.3227 4.39318 25.6074C1.67753 22.8921 0 19.1425 0 15.0019C0 10.8612 1.67753 7.1117 4.39318 4.39639C7.10883 1.67732 10.8588 0 15 0Z" fill="#06AA53"/>
<path d="M30 4.04368L19.3651 14.4407H19.3538L17.0027 16.7355L14.9384 18.75L12.8778 16.7355L7.5 11.478L11.6324 7.43433L14.9535 10.6811L15.2365 10.4044L15.2327 10.397L25.8676 0L30 4.04368Z" fill="white"/>
</svg>
